<mxfile host="app.diagrams.net" modified="2023-10-19T07:39:37.410Z" agent="Mozilla/5.0 (Macintosh; Intel Mac OS X 10_15_7) AppleWebKit/537.36 (KHTML, like Gecko) Chrome/116.0.0.0 Safari/537.36 OPR/102.0.0.0" version="22.0.5" etag="PvIsMiGVy5mZlvL_mCz6" type="github">
  <diagram name="Страница — 1" id="LNBiJtPJpXExKSqU8ra7">
    <mxGraphModel>
      <root>
        <mxCell id="0" />
        <mxCell id="1" parent="0" />
      </root>
    </mxGraphModel>
  </diagram>
</mxfile>
